<svg width="17" height="17" viewBox="0 0 17 17" fill="none" xmlns="http://www.w3.org/2000/svg">
<path d="M8.25 0.75C4.10775 0.75 0.75 4.10775 0.75 8.25C0.75 12.3922 4.10775 15.75 8.25 15.75C12.3922 15.75 15.75 12.3922 15.75 8.25C15.75 4.10775 12.3922 0.75 8.25 0.75Z" stroke="black" stroke-width="1.5" stroke-linecap="round" stroke-linejoin="round"/>
<path d="M2.45312 13.0095C2.45312 13.0095 4.12488 10.875 8.24988 10.875C12.3749 10.875 14.0474 13.0095 14.0474 13.0095M8.24988 8.25C8.84661 8.25 9.41891 8.01295 9.84087 7.59099C10.2628 7.16903 10.4999 6.59674 10.4999 6C10.4999 5.40326 10.2628 4.83097 9.84087 4.40901C9.41891 3.98705 8.84661 3.75 8.24988 3.75C7.65314 3.75 7.08084 3.98705 6.65888 4.40901C6.23693 4.83097 5.99988 5.40326 5.99988 6C5.99988 6.59674 6.23693 7.16903 6.65888 7.59099C7.08084 8.01295 7.65314 8.25 8.24988 8.25Z" stroke="black" stroke-width="1.5" stroke-linecap="round" stroke-linejoin="round"/>
</svg>
