<svg width="17" height="17" viewBox="0 0 17 17" fill="none" xmlns="http://www.w3.org/2000/svg">
  <path d="M8.25 0.75C4.10775 0.75 0.75 4.10775 0.75 8.25C0.75 12.3922 4.10775 15.75 8.25 15.75C12.3922 15.75 15.75 12.3922 15.75 8.25C15.75 4.10775 12.3922 0.75 8.25 0.75Z" stroke="black" stroke-width="1.5" stroke-linecap="round" stroke-linejoin="round"/>
  <path d="M2.45337 13.0095C2.45337 13.0095 4.12512 10.875 8.25012 10.875C12.3751 10.875 14.0476 13.0095 14.0476 13.0095M8.25012 8.25C8.84686 8.25 9.41915 8.01295 9.84111 7.59099C10.2631 7.16903 10.5001 6.59674 10.5001 6C10.5001 5.40326 10.2631 4.83097 9.84111 4.40901C9.41915 3.98705 8.84686 3.75 8.25012 3.75C7.65338 3.75 7.08109 3.98705 6.65913 4.40901C6.23717 4.83097 6.00012 5.40326 6.00012 6C6.00012 6.59674 6.23717 7.16903 6.65913 7.59099C7.08109 8.01295 7.65338 8.25 8.25012 8.25Z" stroke="black" stroke-width="1.5" stroke-linecap="round" stroke-linejoin="round"/>
</svg>
