<svg width="120" height="58" viewBox="0 0 120 58" fill="none" xmlns="http://www.w3.org/2000/svg">
<g clip-path="url(#clip0_4557_25718)">
<path d="M18.5383 10.2136C21.2368 10.2136 23.5035 7.989 23.5035 5.36238C23.5035 2.73576 21.2638 0.484375 18.5383 0.484375H4.96515C2.2667 0.484375 0 2.73576 0 5.38918V31.3873C0 34.0408 2.2667 36.2653 4.96515 36.2653H18.5383C21.2638 36.2653 23.5035 34.0676 23.5035 31.3873C23.5035 28.7071 21.2368 26.5093 18.5383 26.5093H9.93029V22.4622H16.9732C19.5638 22.4622 21.7765 20.2912 21.7765 17.745C21.7765 15.1988 19.5907 13.1082 16.9732 13.1082H9.93029V10.2404H18.5383V10.2136Z" fill="#FFD82F"/>
<path d="M50.6497 0.269531C48.9227 0.269531 47.3576 1.1004 46.3592 2.60132L37.8321 15.7344V4.98672C37.8321 2.44051 35.6194 0.269531 33.0019 0.269531C30.3844 0.269531 28.1177 2.44051 28.1177 4.98672V31.5745C28.1177 34.2816 30.3574 36.4257 33.2177 36.4257C36.0781 36.4257 36.5638 35.5681 37.5622 34.0939L46.0893 20.934V31.7085C46.0893 34.3084 48.2481 36.4257 50.9196 36.4257C53.591 36.4257 55.7498 34.3084 55.7498 31.7085V5.06713C55.7498 2.38691 53.5101 0.269531 50.6497 0.269531Z" fill="#FFD82F"/>
<path d="M79.4694 26.4821H71.401V5.12073C71.401 2.49412 69.1343 0.269531 66.4358 0.269531C63.7374 0.269531 61.4707 2.49412 61.4707 5.12073V31.3869C61.4707 34.0403 63.7374 36.2649 66.4358 36.2649H79.4694C82.1678 36.2649 84.4345 34.0403 84.4345 31.3869C84.4345 28.7335 82.1678 26.5089 79.4694 26.5089V26.4821Z" fill="#FFD82F"/>
<path d="M101.84 0.269531C100.005 0.269531 98.4126 1.26121 97.5761 2.89615L93.1776 10.8028L88.7522 2.89615C87.8887 1.26121 86.2426 0.296333 84.3807 0.296333C81.6822 0.296333 79.4155 2.52092 79.4155 5.14754C79.4155 7.77415 79.6854 6.97009 80.2251 7.80095L88.0236 20.9876V31.6013C88.0236 34.2279 90.2633 36.4525 92.9348 36.4525C95.6062 36.4525 97.9539 34.2279 97.9539 31.6013V20.9072L105.887 7.53293L106.022 7.26491C106.238 6.83607 106.67 6.03201 106.67 4.98672C106.67 2.44051 104.457 0.269531 101.84 0.269531Z" fill="#FFD82F"/>
<path d="M114.522 26.293C111.554 26.293 109.125 28.6248 109.125 31.5194C109.125 34.414 111.554 36.7458 114.522 36.7458C117.49 36.7458 120 34.414 120 31.5194C120 28.6248 117.571 26.293 114.522 26.293Z" fill="#FFD82F"/>
<path d="M114.738 23.6674C117.247 23.6406 119.271 21.8717 119.325 19.6471L119.649 4.47706V4.39665C119.595 1.87725 117.274 -0.0525144 114.36 0.00109004C111.446 0.0546945 110.15 2.5741 110.204 5.06671L110.069 19.6203V19.7007V19.7811C110.204 22.0057 112.255 23.6943 114.738 23.6674Z" fill="#FFD82F"/>
<path d="M1.29541 45.9922H3.50814C5.6669 45.9922 7.20501 47.7611 7.20501 50.6558C7.20501 53.5504 5.6669 55.4802 3.53512 55.4802H1.29541V45.9922ZM5.99071 50.6558C5.99071 48.458 5.04625 47.0107 3.37322 47.0107H2.42876V54.4349H3.37322C5.10022 54.4349 5.99071 52.8268 5.99071 50.6558Z" fill="black"/>
<path d="M8.12256 52.1327C8.12256 50.1494 9.25591 48.6484 10.848 48.6484C12.4401 48.6484 13.2226 49.8545 13.2226 51.3287V52.4812H9.28289C9.30988 53.7141 10.0924 54.6521 11.2797 54.6521C12.4671 54.6521 12.575 54.3037 12.9528 53.9553L12.7639 55.1078C12.3321 55.483 11.6575 55.6438 11.0909 55.6438C9.39083 55.6438 8.14954 54.2233 8.14954 52.1327H8.12256ZM12.1972 51.5967V51.4091C12.1972 50.4442 11.6036 49.6937 10.821 49.6937C10.0385 49.6937 9.39083 50.5514 9.30988 51.6235H12.1972V51.5967Z" fill="black"/>
<path d="M14.8956 53.2834V49.8795H13.7622V48.861H14.8956V47.1188L16.0289 46.2344V48.861H17.7289V49.8795H16.0289V52.9081C16.0289 53.7658 16.1099 54.5163 16.8654 54.5163C17.621 54.5163 17.4051 54.4359 17.7829 54.3018L17.5131 55.3739C17.2432 55.5347 16.9464 55.5883 16.6226 55.5883C15.5702 55.5883 14.8956 54.7575 14.8956 53.3102V53.2834Z" fill="black"/>
<path d="M22.1003 55.6438C21.1019 55.6438 20.3193 54.8934 20.3193 53.7945C20.3193 52.6956 21.0479 52.1327 21.9384 51.7843C22.2622 51.6503 22.8559 51.4895 23.8273 51.3555V51.0338C23.8273 50.1226 23.3956 49.6669 22.586 49.6669C21.7765 49.6669 21.1289 50.1226 20.4812 50.7658L20.6431 49.5329C21.1289 49.0237 21.9114 48.6484 22.7479 48.6484C24.0162 48.6484 24.9337 49.3989 24.9337 50.9802V55.4562H23.9353L23.8813 54.4377C23.5305 55.1614 22.9098 55.617 22.1273 55.617L22.1003 55.6438ZM22.4241 54.7325C23.2337 54.7325 23.8543 53.9285 23.8543 52.9636V52.1327C23.1257 52.2667 22.586 52.4007 22.3162 52.5348C21.8305 52.7492 21.4527 53.0976 21.4527 53.7409C21.4527 54.3841 21.8844 54.7325 22.4511 54.7325H22.4241Z" fill="black"/>
<path d="M29.1973 49.6943C28.4687 49.6943 27.7941 50.3107 27.7671 51.5704V55.4835H26.6338V48.8634H27.7402V49.9087C28.1449 49.051 28.8195 48.6758 29.5481 48.6758C30.6545 48.6758 31.464 49.5603 31.464 51.1416V55.4835H30.3307V51.356C30.3307 50.3107 29.9529 49.6943 29.2243 49.6943H29.1973Z" fill="black"/>
<path d="M32.5973 52.1567C32.5973 50.0661 33.7306 48.6724 35.1069 48.6724C36.4831 48.6724 36.4561 49.0476 36.7799 49.6641V45.9922H37.9132V55.4802H36.8339V54.3813C36.4021 55.2121 35.7815 55.641 35.0259 55.641C33.6227 55.641 32.5703 54.1669 32.5703 52.1567H32.5973ZM36.8339 52.2639V51.9155C36.8339 50.2805 35.9434 49.6641 35.3227 49.6641C34.4053 49.6641 33.7576 50.7094 33.7576 52.1835C33.7576 53.6576 34.3783 54.7029 35.2957 54.7029C36.2132 54.7029 36.8069 53.7916 36.8069 52.2907L36.8339 52.2639Z" fill="black"/>
<path d="M39.0737 52.1327C39.0737 50.1494 40.2071 48.6484 41.7992 48.6484C43.3912 48.6484 44.1738 49.8545 44.1738 51.3287V52.4812H40.2341C40.261 53.7141 41.0436 54.6521 42.2309 54.6521C43.4182 54.6521 43.5262 54.3037 43.904 53.9553L43.7151 55.1078C43.2833 55.483 42.6087 55.6438 42.042 55.6438C40.342 55.6438 39.1007 54.2233 39.1007 52.1327H39.0737ZM43.1484 51.5967V51.4091C43.1484 50.4442 42.5547 49.6937 41.7722 49.6937C40.9896 49.6937 40.342 50.5514 40.261 51.6235H43.1484V51.5967Z" fill="black"/>
<path d="M45.8736 53.2834V49.8795H44.7402V48.861H45.8736V47.1188L47.0069 46.2344V48.861H48.707V49.8795H47.0069V52.9081C47.0069 53.7658 47.0879 54.5163 47.8434 54.5163C48.599 54.5163 48.3831 54.4359 48.7609 54.3018L48.4911 55.3739C48.2212 55.5347 47.9244 55.5883 47.6006 55.5883C46.5482 55.5883 45.8736 54.7575 45.8736 53.3102V53.2834Z" fill="black"/>
<path d="M51.1089 52.1327C51.1089 50.1494 52.2422 48.6484 53.8343 48.6484C55.4264 48.6484 56.209 49.8545 56.209 51.3287V52.4812H52.2692C52.2962 53.7141 53.0788 54.6521 54.2661 54.6521C55.4534 54.6521 55.5613 54.3037 55.9391 53.9553L55.7502 55.1078C55.3185 55.483 54.6439 55.6438 54.0772 55.6438C52.3772 55.6438 51.1359 54.2233 51.1359 52.1327H51.1089ZM55.1835 51.5967V51.4091C55.1835 50.4442 54.5899 49.6937 53.8073 49.6937C53.0248 49.6937 52.3772 50.5514 52.2962 51.6235H55.1835V51.5967Z" fill="black"/>
<path d="M60.0137 49.6943C59.2851 49.6943 58.6105 50.3107 58.5835 51.5704V55.4835H57.4502V48.8634H58.5566V49.9087C58.9613 49.051 59.6359 48.6758 60.3645 48.6758C61.4709 48.6758 62.2804 49.5603 62.2804 51.1416V55.4835H61.1471V51.356C61.1471 50.3107 60.7693 49.6943 60.0407 49.6943H60.0137Z" fill="black"/>
<path d="M63.4136 52.1327C63.4136 50.1494 64.5469 48.6484 66.139 48.6484C67.7311 48.6484 68.5136 49.8545 68.5136 51.3287V52.4812H64.5739C64.6009 53.7141 65.3834 54.6521 66.5708 54.6521C67.7581 54.6521 67.866 54.3037 68.2438 53.9553L68.0549 55.1078C67.6232 55.483 66.9485 55.6438 66.3819 55.6438C64.6818 55.6438 63.4406 54.2233 63.4406 52.1327H63.4136ZM67.4882 51.5967V51.4091C67.4882 50.4442 66.8946 49.6937 66.112 49.6937C65.3295 49.6937 64.6818 50.5514 64.6009 51.6235H67.4882V51.5967Z" fill="black"/>
<path d="M69.7549 48.86H70.7533L70.8073 49.8785C71.0771 49.1549 71.4819 48.6992 72.1025 48.6992C72.7232 48.6992 72.5343 48.7528 72.6962 48.86L72.8041 50.0661C72.5343 49.9321 72.3184 49.8249 72.0486 49.8249C71.266 49.8249 70.9152 50.6022 70.9152 51.3526V55.507H69.7819V48.8868L69.7549 48.86Z" fill="black"/>
<path d="M73.6948 57.3329V56.1536C74.2345 56.6896 74.9091 57.0381 75.5298 57.0381C76.6631 57.0381 77.2568 56.1268 77.2568 54.7599V54.0362C76.933 54.7867 76.3663 55.2959 75.5837 55.2959C74.2075 55.2959 73.1821 53.929 73.1821 52.0797C73.1821 50.2303 74.2075 48.6758 75.5837 48.6758C76.96 48.6758 76.9599 49.1314 77.2568 49.8819V48.8366H78.3631V54.7063C78.3631 56.7701 77.2298 58.0029 75.5837 58.0029C73.9377 58.0029 74.0726 57.7081 73.7218 57.3329H73.6948ZM77.2838 52.0529V51.892C77.2838 50.4179 76.4472 49.6675 75.8266 49.6675C74.9091 49.6675 74.3425 50.7932 74.3425 52.0529C74.3425 53.3126 74.9631 54.331 75.8536 54.331C76.7441 54.331 77.2838 53.393 77.2838 52.0797V52.0529Z" fill="black"/>
<path d="M80.0093 46.6908C80.0093 46.2619 80.3601 45.8867 80.7918 45.8867C81.2236 45.8867 81.5474 46.2619 81.5474 46.6908C81.5474 47.1196 81.2236 47.4949 80.7918 47.4949C80.3601 47.4949 80.0093 47.1196 80.0093 46.6908ZM80.1982 48.8618H81.3315V55.4819H80.1982V48.8618Z" fill="black"/>
<path d="M82.6808 54.8369V53.5504C83.0586 54.0865 83.8411 54.6761 84.5697 54.6761C85.2983 54.6761 85.6491 54.2741 85.6491 53.6844C85.6491 53.0948 85.1634 52.8536 84.4618 52.5587C83.5443 52.1299 82.6538 51.7011 82.6538 50.6022C82.6538 49.5033 83.6792 48.6992 84.7586 48.6992C85.838 48.6992 86.1348 48.994 86.4856 49.3961L86.5935 50.6826C85.9459 49.9589 85.3253 49.6641 84.8126 49.6641C84.2999 49.6641 83.7602 50.0125 83.7602 50.5218C83.7602 51.031 84.6237 51.433 85.2173 51.7279C85.9999 52.1031 86.7555 52.5855 86.7555 53.6308C86.7555 54.6761 85.811 55.6678 84.5697 55.6678C83.3284 55.6678 83.0316 55.3462 82.6808 54.8369Z" fill="black"/>
<path d="M87.6997 52.1327C87.6997 50.1494 88.8331 48.6484 90.4251 48.6484C92.0172 48.6484 92.7998 49.8545 92.7998 51.3287V52.4812H88.86C88.887 53.7141 89.6696 54.6521 90.8569 54.6521C92.0442 54.6521 92.1521 54.3037 92.5299 53.9553L92.341 55.1078C91.9093 55.483 91.2347 55.6438 90.668 55.6438C88.968 55.6438 87.7267 54.2233 87.7267 52.1327H87.6997ZM91.7474 51.5967V51.4091C91.7474 50.4442 91.1537 49.6937 90.3712 49.6937C89.5886 49.6937 88.941 50.5514 88.86 51.6235H91.7474V51.5967Z" fill="black"/>
<path d="M94.0142 45.9922H95.1475V55.4802H94.0142V45.9922Z" fill="black"/>
<path d="M96.4967 54.8369V53.5504C96.8745 54.0865 97.657 54.6761 98.3856 54.6761C99.1142 54.6761 99.465 54.2741 99.465 53.6844C99.465 53.0948 98.9793 52.8536 98.2777 52.5587C97.3602 52.1299 96.4697 51.7011 96.4697 50.6022C96.4697 49.5033 97.4951 48.6992 98.5745 48.6992C99.6539 48.6992 99.9507 48.994 100.302 49.3961L100.409 50.6826C99.7618 49.9589 99.1412 49.6641 98.6285 49.6641C98.1158 49.6641 97.5761 50.0125 97.5761 50.5218C97.5761 51.031 98.4396 51.433 99.0333 51.7279C99.8158 52.1031 100.571 52.5855 100.571 53.6308C100.571 54.6761 99.6269 55.6678 98.3856 55.6678C97.1443 55.6678 96.8475 55.3462 96.4967 54.8369Z" fill="black"/>
<path d="M102.973 52.1065V55.4567H101.867V45.9688H102.973V51.7044L104.889 48.8366H106.157L104.025 51.8116L106.373 55.4567H105.078L102.946 52.1065H102.973Z" fill="black"/>
<path d="M108.586 55.6438C107.587 55.6438 106.805 54.8934 106.805 53.7945C106.805 52.6956 107.533 52.1327 108.424 51.7843C108.748 51.6503 109.341 51.4895 110.313 51.3555V51.0338C110.313 50.1226 109.881 49.6669 109.071 49.6669C108.262 49.6669 107.614 50.1226 106.967 50.7658L107.129 49.5329C107.614 49.0237 108.397 48.6484 109.233 48.6484C110.502 48.6484 111.419 49.3989 111.419 50.9802V55.4562H110.421L110.367 54.4377C110.016 55.1614 109.395 55.617 108.613 55.617L108.586 55.6438ZM108.882 54.7325C109.692 54.7325 110.313 53.9285 110.313 52.9636V52.1327C109.584 52.2667 109.044 52.4007 108.775 52.5348C108.289 52.7492 107.911 53.0976 107.911 53.7409C107.911 54.3841 108.343 54.7325 108.909 54.7325H108.882Z" fill="black"/>
<path d="M114.172 54.4885V55.4802H113.092V45.9922H114.199V49.8517C114.684 48.9136 115.44 48.6724 116.034 48.6724C117.437 48.6724 118.381 50.1197 118.381 52.0495C118.381 53.9792 117.14 55.6678 115.899 55.6678C114.657 55.6678 114.468 55.1585 114.172 54.5153V54.4885ZM117.248 52.1031C117.248 50.7362 116.708 49.6373 115.791 49.6373C114.873 49.6373 114.172 50.5218 114.172 52.0227V52.3711C114.172 54.006 115.035 54.6493 115.71 54.6493C116.384 54.6493 117.248 53.6308 117.248 52.0763V52.1031Z" fill="black"/>
</g>
<defs>
<clipPath id="clip0_4557_25718">
<rect width="120" height="58" fill="white"/>
</clipPath>
</defs>
</svg>
