<svg width="479" height="138" viewBox="0 0 479 138" fill="none" xmlns="http://www.w3.org/2000/svg">
<g clip-path="url(#clip0_190_11586)">
<path d="M68.67 38.14C78.64 38.14 87.06 29.86 87.06 20.07C87.06 10.28 78.81 1.83 68.67 1.83H18.4C8.42 1.83 0 10.18 0 20.06V117.05C0 126.93 8.42 135.28 18.4 135.28H68.67C78.81 135.28 87.06 127.1 87.06 117.05C87.06 107 78.64 98.82 68.67 98.82H36.8V83.73H62.87C72.49 83.73 80.62 75.67 80.62 66.14C80.62 56.61 72.49 48.87 62.87 48.87H36.8V38.13H68.67V38.14Z" fill="#FFD82F"/>
<path d="M187.68 1.03C181.23 1.03 175.45 4.16 171.75 9.71L140.17 58.7V18.62C140.17 9.09 131.97 1.03 122.26 1.03C112.55 1.03 104.19 9.09 104.19 18.62V117.87C104.19 128 112.48 135.94 123.07 135.94C129.52 135.94 135.51 132.73 139.16 127.25L170.73 78.16V118.35C170.73 128.05 178.77 135.94 188.64 135.94C198.51 135.94 206.55 128.05 206.55 118.35V18.94C206.55 8.9 198.26 1.03 187.67 1.03H187.68Z" fill="#FFD82F"/>
<path d="M294.55 98.83H264.61V19.1C264.61 9.3 256.19 1.03 246.22 1.03C236.25 1.03 227.82 9.31 227.82 19.1V117.06C227.82 126.94 236.24 135.29 246.22 135.29H294.56C304.53 135.29 312.95 126.94 312.95 117.06C312.95 107.18 304.53 98.83 294.56 98.83H294.55Z" fill="#FFD82F"/>
<path d="M377.36 1.03C370.59 1.03 364.69 4.68 361.55 10.82L345.27 40.28L328.83 10.74C325.58 4.66 319.52 1.03 312.58 1.03C302.61 1.03 294.18 9.31 294.18 19.1C294.18 22.57 295.2 25.91 297.22 29.01L326.09 78.25V117.86C326.09 127.66 334.44 135.93 344.32 135.93C354.2 135.93 362.88 127.65 362.88 117.86V77.94L392.33 28.04L392.84 27.07C393.69 25.46 395.26 22.47 395.26 18.61C395.26 9.08 387.06 1.02 377.35 1.02L377.36 1.03Z" fill="#FFD82F"/>
<path d="M424.4 98.12C413.4 98.12 404.37 106.86 404.37 117.58C404.37 128.3 413.4 137.04 424.4 137.04C435.4 137.04 444.71 128.3 444.71 117.58C444.71 106.86 435.68 98.12 424.4 98.12Z" fill="#FFD82F"/>
<path d="M425.16 88.3C434.47 88.15 441.95 81.56 442.18 73.3L443.38 16.66V16.35C443.24 7.01 434.62 -0.169999 423.76 6.65896e-07C412.9 0.170001 408.21 9.6 408.32 18.9L407.82 73.25V73.54L407.83 73.83C408.33 82.08 415.94 88.43 425.16 88.29V88.3Z" fill="#FFD82F"/>
</g>
<defs>
<clipPath id="clip0_190_11586">
<rect width="478.99" height="137.05" fill="white"/>
</clipPath>
</defs>
</svg>
